HIERARCHY
ROOT Hips
{
  OFFSET 46.0373 92.9577 14.1012
  CHANNELS 6 Xposition Yposition Zposition Zrotation Xrotation Yrotation
  JOINT spine
  {
    OFFSET 0 7.4756 0.429885
    CHANNELS 3 Zrotation Xrotation Yrotation
    JOINT spine1
    {
      OFFSET 0 9.92301 0
      CHANNELS 3 Zrotation Xrotation Yrotation
      JOINT spine2
      {
        OFFSET 0 9.50804 0
        CHANNELS 3 Zrotation Xrotation Yrotation
        JOINT Neck
        {
          OFFSET 0 24.4111 1.16384
          CHANNELS 3 Zrotation Xrotation Yrotation
          JOINT Head
          {
            OFFSET 0 7.37523 0
            CHANNELS 3 Zrotation Xrotation Yrotation
            End Site
            {
              OFFSET 0 17.8522 -5.88741
            }
          }
        }
        JOINT RightShoulder
        {
          OFFSET -4.00356 10.2679 -0.557468
          CHANNELS 3 Zrotation Xrotation Yrotation
          JOINT RightArm
          {
            OFFSET 0 13.4673 0
            CHANNELS 3 Zrotation Xrotation Yrotation
            JOINT RightArmRoll
            {
              OFFSET 0 6.79857 0
              CHANNELS 3 Zrotation Xrotation Yrotation
              JOINT RightForeArm
              {
                OFFSET 0 19.8018 0
                CHANNELS 3 Zrotation Xrotation Yrotation
                JOINT RightForeArmRoll
                {
                  OFFSET 0 7.62905 0
                  CHANNELS 3 Zrotation Xrotation Yrotation
                  JOINT RightHand
                  {
                    OFFSET 0 15.3098 0
                    CHANNELS 3 Zrotation Xrotation Yrotation
                    End Site
                    {
                      OFFSET 0 0 0
                    }
                  }
                }
              }
            }
          }
        }
        JOINT LeftShoulder
        {
          OFFSET 4.00356 10.2679 -0.557468
          CHANNELS 3 Zrotation Xrotation Yrotation
          JOINT LeftArm
          {
            OFFSET 0 13.4673 0
            CHANNELS 3 Zrotation Xrotation Yrotation
            JOINT LeftArmRoll
            {
              OFFSET 0 6.79857 0
              CHANNELS 3 Zrotation Xrotation Yrotation
              JOINT LeftForeArm
              {
                OFFSET 0 19.8018 0
                CHANNELS 3 Zrotation Xrotation Yrotation
                JOINT LeftForeArmRoll
                {
                  OFFSET 0 7.62905 0
                  CHANNELS 3 Zrotation Xrotation Yrotation
                  JOINT LeftHand
                  {
                    OFFSET 0 15.3098 0
                    CHANNELS 3 Zrotation Xrotation Yrotation
                    End Site
                    {
                      OFFSET 0 0 0
                    }
                  }
                }
              }
            }
          }
        }
      }
    }
  }
  JOINT RightUpLeg
  {
    OFFSET -6.62609 -1.21505 -1.01927
    CHANNELS 3 Zrotation Xrotation Yrotation
    JOINT RightUpLegRoll
    {
      OFFSET 0 17.9517 0
      CHANNELS 3 Zrotation Xrotation Yrotation
      JOINT RightLeg
      {
        OFFSET 0 -22.2304 0
        CHANNELS 3 Zrotation Xrotation Yrotation
        JOINT RightLegRoll
        {
          OFFSET 0 22.3032 0
          CHANNELS 3 Zrotation Xrotation Yrotation
          JOINT RightFoot
          {
            OFFSET 0 18.5636 0
            CHANNELS 3 Zrotation Xrotation Yrotation
            JOINT RightToeBase
            {
              OFFSET 0 15.5183 0
              CHANNELS 3 Zrotation Xrotation Yrotation
              End Site
              {
                OFFSET 0.0065776 7.51538 -0.866263
              }
            }
          }
        }
      }
    }
  }
  JOINT LeftUpLeg
  {
    OFFSET 6.62609 -1.21505 -1.01927
    CHANNELS 3 Zrotation Xrotation Yrotation
    JOINT LeftUpLegRoll
    {
      OFFSET 0 17.9518 0
      CHANNELS 3 Zrotation Xrotation Yrotation
      JOINT LeftLeg
      {
        OFFSET 0 22.2303 0
        CHANNELS 3 Zrotation Xrotation Yrotation
        JOINT LeftLegRoll
        {
          OFFSET 0 22.5093 0
          CHANNELS 3 Zrotation Xrotation Yrotation
          JOINT LeftFoot
          {
            OFFSET 0 18.3575 0
            CHANNELS 3 Zrotation Xrotation Yrotation
            JOINT LeftToeBase
            {
              OFFSET 0 15.5183 0
              CHANNELS 3 Zrotation Xrotation Yrotation
              End Site
              {
                OFFSET -0.029478 7.51538 -0.866263
              }
            }
          }
        }
      }
    }
  }
}
MOTION
Frames: 9
Frame Time: 0.00208333
44.9814 93.0207 14.4771 3.19102 1.12476 75.4612 0.0297058 -0.420708 0.211148 0.0742093 3.16155 0.41775 0.0692811 4.80661 0.416916 -13.9955 0.836728 -4.43155 15.2159 5.99314 -6.08863 61.1248 -2.37493 -1.69418 147.78 43.0059 -46.4967 -3.18319e-006 -5.45104e-006 1.46846e-005 31.154 0.201 -2.53117 2.05162e-006 -1.28074e-006 -3.24911 8.0307 -4.95128 0.697728 -73.5906 -2.63737 2.91767 -86.2037 43.1266 10.9189 -1.54755e-005 -3.58696e-006 1.00106e-005 -29.4316 3.932 -0.160468 1.46876e-005 3.15638e-007 3.00002 -8.03056 -4.95137 -0.69776 178.679 2.25873 0.0558128 180 7.0154e-015 178.895 177.846 14.2368 179.682 -1.71648e-006 -7.82038e-006 0.29135 -21.5815 71.2468 22.6894 8.15055 25.2401 -3.49964 179.644 5.37931 5.4505 4.54188e-006 -4.6773e-006 -1.03538 1.13465 -12.336 0.521534 4.38424e-006 8.37379e-006 0.0993891 16.606 64.6802 -17.1202 -8.16816 26.1804 2.21889 
44.978 93.0179 14.541 3.18978 1.13173 75.5221 0.0282256 -0.420489 0.218253 0.0705222 3.16199 0.432258 0.0654149 4.80705 0.431498 -13.9959 0.82649 -4.43502 15.2258 6.00132 -6.09165 61.1386 -2.35376 -1.68305 147.545 42.8476 -46.7339 -3.18319e-006 -5.45104e-006 1.46846e-005 31.3795 0.131311 -2.17563 2.05162e-006 -1.28075e-006 -3.23248 8.0307 -4.95128 0.697728 -73.5589 -2.67591 2.93262 -86.1918 42.98 10.9661 -1.54755e-005 -3.58696e-006 1.00106e-005 -29.4377 4.13551 -0.101645 1.46876e-005 3.15638e-007 3.00002 -8.03056 -4.95137 -0.69776 178.699 2.23452 0.055949 180 7.0154e-015 178.895 177.827 14.223 179.686 -1.71648e-006 -7.82038e-006 0.291469 -21.6054 71.2688 22.7148 8.15055 25.2401 -3.49964 179.66 5.45297 5.44515 4.54188e-006 -4.6773e-006 -1.0355 1.14411 -12.4467 0.526668 4.38424e-006 8.37379e-006 0.0986156 16.607 64.6786 -17.1193 -8.16943 26.2163 2.17217 
44.9702 93.013 14.5919 3.1888 1.13862 75.5827 0.0267526 -0.420311 0.225569 0.0668349 3.16234 0.447224 0.0615431 4.8074 0.446539 -13.9972 0.818364 -4.43841 15.2369 6.00847 -6.09479 61.1519 -2.33221 -1.67164 147.309 42.6902 -46.9657 -3.18319e-006 -5.45104e-006 1.46846e-005 31.6115 0.0270127 -1.79858 2.05162e-006 -1.28075e-006 -3.21529 8.0307 -4.95128 0.697728 -73.5278 -2.71374 2.94726 -86.1766 42.8332 11.0156 -1.54755e-005 -3.58696e-006 1.00106e-005 -29.4469 4.34375 -0.0415432 1.46876e-005 3.15638e-007 3.00002 -8.03056 -4.95137 -0.69776 178.719 2.2097 0.0562703 180 7.0154e-015 178.895 177.807 14.209 179.69 -1.71648e-006 -7.82038e-006 0.291625 -21.6295 71.2911 22.7406 8.15055 25.2401 -3.49964 179.675 5.52605 5.44032 4.54188e-006 -4.6773e-006 -1.03559 1.15414 -12.5565 0.531839 4.38424e-006 8.37379e-006 0.0979571 16.6076 64.6763 -17.1179 -8.17066 26.253 2.12443 
44.9639 93.004 14.6526 3.188 1.14544 75.6431 0.0252847 -0.420161 0.233033 0.0631475 3.16264 0.462513 0.0576673 4.80769 0.461903 -13.9992 0.811718 -4.44174 15.2489 6.01491 -6.09802 61.1649 -2.31038 -1.66004 147.071 42.5334 -47.1935 -3.18319e-006 -5.45104e-006 1.46846e-005 31.8488 -0.101535 -1.40649 2.05162e-006 -1.28075e-006 -3.19771 8.0307 -4.95128 0.697728 -73.4971 -2.75108 2.96171 -86.1591 42.686 11.0667 -1.54755e-005 -3.58696e-006 1.00106e-005 -29.4585 4.55529 0.0194676 1.46876e-005 3.15638e-007 3.00002 -8.03056 -4.95137 -0.69776 178.739 2.18445 0.056721 180 7.0154e-015 178.895 177.788 14.1947 179.694 -1.71648e-006 -7.82038e-006 0.291808 -21.6539 71.3134 22.7666 8.15055 25.2401 -3.49964 179.691 5.59872 5.43586 4.54188e-006 -4.6773e-006 -1.03567 1.16457 -12.6657 0.537038 4.38424e-006 8.37379e-006 0.0973792 16.6079 64.6736 -17.1163 -8.17184 26.2903 2.07595 
44.9198 92.9947 14.6979 3.1873 1.15216 75.7032 0.0238196 -0.420028 0.240582 0.05946 3.1629 0.477984 0.0537891 4.80796 0.477449 -14.0016 0.805916 -4.44504 15.2614 6.02094 -6.1013 61.1777 -2.2884 -1.64834 146.832 42.3768 -47.4187 -3.18319e-006 -5.45104e-006 1.46846e-005 32.0904 -0.243955 -1.00579 2.05162e-006 -1.28075e-006 -3.17991 8.0307 -4.95128 0.697728 -73.4667 -2.78814 2.97604 -86.1401 42.5388 11.1186 -1.54755e-005 -3.58696e-006 1.00106e-005 -29.4717 4.76872 0.0810153 1.46876e-005 3.15638e-007 3.00002 -8.03056 -4.95137 -0.69776 178.758 2.15895 0.0572458 180 7.0154e-015 178.895 177.768 14.1804 179.699 -1.71648e-006 -7.82038e-006 0.292006 -21.6785 71.3359 22.7927 8.15055 25.2401 -3.49964 179.706 5.67117 5.43162 4.54188e-006 -4.6773e-006 -1.03574 1.17525 -12.7746 0.542256 4.38424e-006 8.37379e-006 0.0968472 16.6082 64.6708 -17.1146 -8.17297 26.3278 2.02705 
44.9192 92.9943 14.7588 3.18661 1.15879 75.7634 0.0223552 -0.419899 0.248152 0.0557724 3.16315 0.493502 0.0499103 4.80821 0.493042 -14.0041 0.800326 -4.44834 15.274 6.02687 -6.10459 61.1905 -2.26638 -1.63661 146.592 42.2199 -47.6424 -3.18319e-006 -5.45104e-006 1.46846e-005 32.3346 -0.389856 -0.60295 2.05162e-006 -1.28075e-006 -3.16205 8.0307 -4.95128 0.697728 -73.4363 -2.82513 2.99034 -86.1204 42.3915 11.1706 -1.54755e-005 -3.58696e-006 1.00106e-005 -29.4856 4.98261 0.142728 1.46876e-005 3.15638e-007 3.00002 -8.03056 -4.95137 -0.69776 178.778 2.13339 0.0577891 180 7.01541e-015 178.895 177.749 14.166 179.703 -1.71648e-006 -7.82038e-006 0.292208 -21.7031 71.3583 22.8189 8.15055 25.2401 -3.49964 179.722 5.74355 5.42743 4.54188e-006 -4.6773e-006 -1.03581 1.18599 -12.8834 0.547483 4.38424e-006 8.37379e-006 0.0963268 16.6084 64.6678 -17.1128 -8.17403 26.3653 1.97802 
44.9216 92.9923 14.8085 3.18584 1.16532 75.8236 0.0208893 -0.419761 0.25568 0.0520846 3.16342 0.508927 0.0460324 4.80848 0.508543 -14.0063 0.794313 -4.45166 15.2864 6.033 -6.10786 61.2034 -2.24444 -1.62494 146.35 42.0625 -47.866 -3.18319e-006 -5.45104e-006 1.46846e-005 32.5795 -0.528842 -0.204396 2.05162e-006 -1.28075e-006 -3.1443 8.0307 -4.95128 0.697728 -73.4058 -2.86226 3.00471 -86.101 42.2443 11.2219 -1.54755e-005 -3.58696e-006 1.00106e-005 -29.4995 5.19555 0.204232 1.46876e-005 3.15638e-007 3.00002 -8.03056 -4.95137 -0.69776 178.798 2.10795 0.0582954 180 7.01541e-015 178.895 177.729 14.1516 179.707 -1.71648e-006 -7.82038e-006 0.292403 -21.7277 71.3807 22.8451 8.15055 25.2401 -3.49964 179.737 5.81606 5.42315 4.54188e-006 -4.6773e-006 -1.03589 1.19665 -12.9924 0.552711 4.38424e-006 8.37379e-006 0.0957833 16.6087 64.665 -17.111 -8.17501 26.4027 1.92915 
44.9057 92.9884 14.8645 3.18491 1.17175 75.884 0.0194197 -0.419604 0.263101 0.0483966 3.16373 0.524124 0.042157 4.80879 0.523814 -14.0082 0.787244 -4.45501 15.2981 6.03964 -6.11106 61.2165 -2.22269 -1.6134 146.108 41.9041 -48.0906 -3.18319e-006 -5.45104e-006 1.46846e-005 32.8228 -0.650516 0.18342 2.05162e-006 -1.28075e-006 -3.12683 8.0307 -4.95128 0.697728 -73.3749 -2.89974 3.01922 -86.0827 42.0973 11.2719 -1.54755e-005 -3.58696e-006 1.00106e-005 -29.5124 5.40613 0.265152 1.46876e-005 3.15638e-007 3.00002 -8.03056 -4.95137 -0.69776 178.818 2.08282 0.0587092 180 7.01541e-015 178.895 177.71 14.1374 179.711 -1.71648e-006 -7.82038e-006 0.292578 -21.7523 71.403 22.8713 8.15055 25.2401 -3.49964 179.753 5.88885 5.41862 4.54188e-006 -4.6773e-006 -1.03597 1.20705 -13.1018 0.557929 4.38424e-006 8.37379e-006 0.0951824 16.6091 64.6624 -17.1095 -8.17591 26.4398 1.88076 
44.8877 92.981 14.9258 3.18373 1.17808 75.9447 0.0179443 -0.419413 0.270354 0.0447082 3.16411 0.538953 0.0382857 4.80917 0.538718 -14.0092 0.778485 -4.45842 15.3089 6.0471 -6.11417 61.2299 -2.20125 -1.60208 145.864 41.7443 -48.3176 -3.18319e-006 -5.45104e-006 1.46846e-005 33.062 -0.744487 0.554044 2.05162e-006 -1.28075e-006 -3.10981 8.0307 -4.95128 0.697728 -73.3435 -2.93778 3.03397 -86.0663 41.9506 11.3197 -1.54755e-005 -3.58696e-006 1.00106e-005 -29.5234 5.61291 0.325115 1.46876e-005 3.15638e-007 3.00002 -8.03056 -4.95137 -0.69776 178.838 2.05818 0.0589749 180 7.01541e-015 178.895 177.69 14.1234 179.716 -1.71648e-006 -7.82038e-006 0.292724 -21.7768 71.4252 22.8974 8.15055 25.2401 -3.49964 179.768 5.96211 5.41368 4.54188e-006 -4.6773e-006 -1.03607 1.21704 -13.2118 0.56313 4.38424e-006 8.37379e-006 0.0944894 16.6098 64.6603 -17.1083 -8.17672 26.4762 1.83313 
